<?xml version="1.0" encoding="UTF-8" standalone="no"?>
<!-- Created with Inkscape (http://www.inkscape.org/) -->

<svg
   width="350.53485"
   height="64"
   viewBox="0 0 350.53485 64"
   version="1.1"
   id="svg5408"
   xmlns="http://www.w3.org/2000/svg"
   xmlns:svg="http://www.w3.org/2000/svg">
  <defs
     id="defs1082" />
  <g
     id="g3688"
     transform="matrix(1.0591913,0,0,-1.0591913,-241.03061,171.47944)">
    <path
       d="m 535.55332,142.73652 h 22.95313 v -4.40316 h -9.0142 v -24.85424 h -4.96631 v 24.85424 h -8.97262 z"
       style="fill:#00a1e0;fill-opacity:1;fill-rule:nonzero;stroke:none;stroke-width:3.77954"
       id="path2738"
       transform="translate(-1.0944962e-4,6.4946769e-5)" />
    <path
       d="m 519.18377,139.27446 c -2.98584,-0.0567 -5.17419,-1.19811 -6.56128,-3.44694 -1.39843,-2.19591 -2.07874,-4.76977 -2.05607,-7.72537 -0.0227,-2.90269 0.65764,-5.45387 2.05607,-7.67246 1.38709,-2.27906 3.57544,-3.43938 6.56128,-3.48851 1.53827,0 2.86111,0.32504 3.97985,0.9789 1.08095,0.6274 1.95402,1.46646 2.61544,2.50961 1.35685,2.21859 2.04095,4.76977 2.04095,7.67246 0,2.9556 -0.6841,5.52946 -2.04095,7.72537 -1.34552,2.24883 -3.54143,3.39025 -6.59529,3.44694 m 0,4.16127 c 4.29355,-0.0529 7.63088,-1.55717 10.00443,-4.50143 2.36599,-2.8989 3.56788,-6.50458 3.59056,-10.83215 -0.0227,-4.28222 -1.22457,-7.87656 -3.59056,-10.78302 -2.37355,-2.94804 -5.71088,-4.45985 -10.00443,-4.543 -4.27088,0.0832 -7.58931,1.59496 -9.97042,4.543 -2.40379,2.90646 -3.60946,6.5008 -3.60946,10.78302 0,4.32757 1.20567,7.93325 3.60946,10.83215 2.38111,2.94426 5.69954,4.44852 9.97042,4.50143"
       style="fill:#00a1e0;fill-opacity:1;fill-rule:nonzero;stroke:none;stroke-width:3.77954"
       id="path2734"
       transform="translate(-1.0944962e-4,6.4946769e-5)" />
    <path
       d="m 484.75117,128.86221 h 7.26427 c 0.55937,0 1.14142,0.0945 1.74992,0.27969 0.59339,0.17386 1.12252,0.43843 1.59119,0.78614 0.4989,0.36284 0.90709,0.87686 1.20567,1.53072 0.27968,0.60094 0.42331,1.36063 0.42331,2.26394 -0.0265,1.89733 -0.4989,3.19749 -1.41733,3.90048 -0.43087,0.37039 -0.94866,0.6274 -1.55339,0.78992 -0.57827,0.10961 -1.22457,0.15874 -1.92,0.15874 h -7.34364 z m -4.95498,13.87468 h 12.51405 c 1.99937,-0.0302 3.65481,-0.3137 4.96253,-0.86551 1.26237,-0.59717 2.24127,-1.36441 2.92536,-2.29796 0.68788,-0.89953 1.16788,-1.86709 1.43623,-2.91024 0.20409,-1.03182 0.30992,-2.02583 0.30992,-2.9745 0,-0.90331 -0.10583,-1.86331 -0.30992,-2.87623 -0.26835,-1.04315 -0.74835,-2.02961 -1.43623,-2.95181 -0.68787,-0.93355 -1.66299,-1.67056 -2.92536,-2.21859 -1.30772,-0.60095 -2.96316,-0.91465 -4.97009,-0.94111 h -7.55151 V 113.4795 h -4.95498 z"
       style="fill:#00a1e0;fill-opacity:1;fill-rule:nonzero;stroke:none;stroke-width:3.77954"
       id="path2730"
       transform="translate(-1.0944962e-4,6.4946769e-5)" />
    <path
       d="m 456.46349,123.20047 c 0.0265,-2.24127 0.73701,-3.83623 2.14677,-4.78112 1.33796,-1.01291 3.02741,-1.50803 5.07214,-1.4778 2.18457,0.0265 3.74552,0.49134 4.68285,1.39843 0.89575,0.86552 1.34929,1.87465 1.34929,3.02741 -0.0302,1.12252 -0.25701,1.95402 -0.70299,2.50206 -0.45355,0.54425 -0.9978,0.91086 -1.62898,1.09984 -1.86709,0.66898 -4.69797,1.47024 -8.4964,2.4189 -2.38489,0.75591 -4.03655,1.79528 -4.93985,3.12946 -0.92599,1.30772 -1.3682,2.74017 -1.34174,4.30111 0.0491,2.95182 1.14898,5.14395 3.29954,6.56884 2.06362,1.36063 4.42205,2.04851 7.06395,2.04851 3.07276,0 5.64663,-0.78237 7.72159,-2.33576 2.05607,-1.5874 3.10678,-3.9156 3.1597,-6.98836 h -4.95498 c -0.13228,1.88221 -0.75212,3.22017 -1.86709,4.02143 -1.0885,0.75968 -2.50961,1.14142 -4.25576,1.14142 -0.55937,0 -1.14142,-0.0567 -1.7537,-0.16252 -0.58205,-0.10583 -1.13764,-0.3137 -1.66678,-0.61985 -0.53291,-0.26456 -0.96,-0.6463 -1.28126,-1.14142 -0.34016,-0.52535 -0.50646,-1.15276 -0.50646,-1.88599 0,-1.01291 0.30992,-1.81795 0.95245,-2.42268 0.60472,-0.59717 1.4211,-1.05071 2.43402,-1.35685 2.22614,-0.57449 4.96253,-1.31906 8.20159,-2.24505 1.87843,-0.63118 3.27308,-1.62898 4.18395,-3.00473 0.89197,-1.38709 1.33796,-2.87245 1.33796,-4.46741 -0.0491,-3.25418 -1.21702,-5.60505 -3.50364,-7.04884 -2.25638,-1.42488 -4.86048,-2.143 -7.80474,-2.143 -3.31843,0 -6.08127,0.8504 -8.28096,2.53607 -2.23749,1.66678 -3.42804,4.29356 -3.58678,7.8879 z"
       style="fill:#00a1e0;fill-opacity:1;fill-rule:nonzero;stroke:none;stroke-width:3.77954"
       id="path2726"
       transform="translate(-1.0944962e-4,6.4946769e-5)" />
    <path
       d="m 437.15988,129.24244 c 2.05607,0 3.74174,0.46866 5.05702,1.4022 1.31906,0.93355 1.99182,2.42269 2.02205,4.45986 0,1.10362 -0.18897,2.01449 -0.55937,2.74772 -0.37039,0.74835 -0.88819,1.30772 -1.54583,1.68189 -1.3115,0.74835 -2.9178,1.10741 -4.82269,1.08095 h -8.52663 v -11.37262 z m -8.37545,-2.35466 v -13.40979 h -2.75529 v 29.49928 h 11.21011 c 6.45545,0.0642 9.70585,-2.51717 9.76254,-7.74427 0.0491,-3.50363 -1.52315,-5.90364 -4.71308,-7.20758 0.89575,-0.30992 1.59119,-0.72945 2.10142,-1.26236 0.48756,-0.58961 0.83528,-1.24725 1.04316,-1.98426 0.24945,-0.72945 0.41197,-1.51181 0.49134,-2.33953 0.0794,-0.8126 0.1096,-1.61386 0.0794,-2.40001 0.0718,-2.16189 0.20787,-3.6926 0.38929,-4.59969 0.20031,-0.8693 0.46488,-1.42867 0.80504,-1.6819 v -0.27968 h -3.03119 c -0.2759,0.54803 -0.46488,1.2548 -0.56315,2.12032 -0.12472,0.85417 -0.23433,1.75748 -0.30614,2.72126 -0.034,1.00158 -0.0718,1.93891 -0.12095,2.81954 -0.0907,0.86929 -0.18519,1.57984 -0.28724,2.12788 -0.15496,0.82394 -0.39307,1.47024 -0.71811,1.94268 -0.3326,0.49134 -0.75969,0.85795 -1.29261,1.09984 -0.49134,0.23812 -1.04693,0.40819 -1.65543,0.4989 -0.32126,0.0529 -0.63874,0.0794 -0.94489,0.0794 h -1.03937 z"
       style="fill:#003a70;fill-opacity:1;fill-rule:nonzero;stroke:none;stroke-width:3.77954"
       id="path2722"
       transform="translate(-1.0944962e-4,6.4946769e-5)" />
    <path
       d="m 401.03658,113.47836 v 29.49929 h 19.0791 v -2.36221 h -16.32004 v -10.68853 h 14.72508 v -2.35465 H 403.79564 V 115.8368 h 16.69799 v -2.35844 z"
       style="fill:#003a70;fill-opacity:1;fill-rule:nonzero;stroke:none;stroke-width:3.77954"
       id="path2718"
       transform="translate(-1.0944962e-4,6.4946769e-5)" />
    <path
       d="m 384.80347,128.86221 c 2.56252,-0.0265 4.57324,0.3704 6.02836,1.18678 1.38709,0.82772 2.09386,2.4567 2.12032,4.88694 0.0265,3.76064 -2.42646,5.65419 -7.35498,5.67686 h -6.95435 v -11.75058 z m -8.91971,-15.38271 v 29.4955 h 10.45798 c 1.88977,0 3.44694,-0.20031 4.66773,-0.60094 1.21701,-0.46866 2.15433,-1.06583 2.81953,-1.79906 1.27748,-1.58741 1.90489,-3.53009 1.88221,-5.82049 -0.0643,-3.20505 -1.22457,-5.38962 -3.46206,-6.57261 -2.22992,-1.1641 -4.72442,-1.72725 -7.50238,-1.67434 h -6.10395 V 113.4795 Z"
       style="fill:#003a70;fill-opacity:1;fill-rule:nonzero;stroke:none;stroke-width:3.77954"
       id="path2714"
       transform="translate(-1.0944962e-4,6.4946769e-5)" />
    <path
       d="m 356.67502,124.94246 -10.63562,17.79406 h 5.76002 l 7.49482,-13.10744 7.38899,13.10744 h 5.54836 l -10.59782,-17.79406 v -11.46334 h -4.95875 z"
       style="fill:#00a1e0;fill-opacity:1;fill-rule:nonzero;stroke:none;stroke-width:3.77954"
       id="path2710"
       transform="translate(-1.0944962e-4,6.4946769e-5)" />
    <path
       d="m 323.48199,142.73652 h 20.39438 v -4.40316 h -15.43562 v -7.71026 h 14.29042 v -4.15371 h -14.29042 v -8.59089 h 15.73043 v -4.39938 h -20.68919 z"
       style="fill:#00a1e0;fill-opacity:1;fill-rule:nonzero;stroke:none;stroke-width:3.77954"
       id="path2706"
       transform="translate(-1.0944962e-4,6.4946769e-5)" />
    <path
       d="m 295.40495,142.73652 h 4.95875 v -13.33043 l 12.62743,13.33043 h 6.11151 l -11.31215,-11.67121 12.10208,-17.58619 h -6.18711 l -9.30899,13.95027 -4.03277,-4.14237 v -9.8079 h -4.95875 z"
       style="fill:#00a1e0;fill-opacity:1;fill-rule:nonzero;stroke:none;stroke-width:3.77954"
       id="path2702"
       transform="translate(-1.0944962e-4,6.4946769e-5)" />
    <g
       id="g6036"
       transform="matrix(3.7795369,0,0,3.7795369,-632.51573,-449.99722)">
      <path
         d="M 0,0 H 1.215 V 2.036 H -1.23 V 0.844 c 0,-0.23 -0.186,-0.415 -0.415,-0.415 -0.229,0 -0.415,0.185 -0.415,0.415 v 1.192 h -0.291 v -4.898 h 0.291 v 1.23 c 0,0.229 0.186,0.414 0.415,0.414 0.229,0 0.415,-0.185 0.415,-0.414 v -1.23 h 2.445 v 2.031 H 0 c -0.229,0 -0.415,0.186 -0.415,0.416 C -0.415,-0.186 -0.229,0 0,0"
         style="fill:#00a1e0;fill-opacity:1;fill-rule:nonzero;stroke:none"
         id="path2742"
         transform="translate(237.1836,154.7588)" />
      <path
         d="m 0,0 c -4.418,0 -7.999,-3.582 -7.999,-8.001 0,-4.263 3.336,-7.748 7.542,-7.986 v 1.27 9.615 h -1.589 v -9.313 c -2.717,0.867 -4.686,3.411 -4.686,6.414 0,3.718 3.015,6.733 6.732,6.733 3.719,0 6.732,-3.015 6.732,-6.733 0,-3.434 -2.572,-6.268 -5.894,-6.679 v -1.277 C 4.862,-15.538 8,-12.135 8,-8.001 8,-3.582 4.42,0 0,0"
         style="display:inline;fill:#00a1e0;fill-opacity:1;fill-rule:nonzero;stroke:none"
         id="path2746"
         transform="translate(235.5605,161.8965)" />
    </g>
  </g>
</svg>
